<svg xmlns="http://www.w3.org/2000/svg" width="21" height="20" viewBox="0 0 21 20">
  <defs>
    <style>
      .cls-1 {
        fill: rgba(253,73,198,0.35);
        opacity: 0;
      }

      .cls-2 {
        fill: #fff;
      }
    </style>
  </defs>
  <g id="Circle_Button_SIZE_MEDIUM_STATE_DEFAULT_STYLE_STYLE3_" data-name="Circle Button [SIZE=MEDIUM][STATE=DEFAULT][STYLE=STYLE3]" transform="translate(0.5)">
    <g id="Icon_ICON_feather_twitter_SIZE_MEDIUM_STATE_DEFAULT_STYLE_STYLE3_" data-name="Icon [ICON=feather/twitter][SIZE=MEDIUM][STATE=DEFAULT][STYLE=STYLE3]" transform="translate(0 0)">
      <rect id="Area_ICON:feather_twitter_SIZE:MEDIUM_STATE:DEFAULT_STYLE:STYLE3_" data-name="Area [ICON:feather/twitter][SIZE:MEDIUM][STATE:DEFAULT][STYLE:STYLE3]" class="cls-1" width="20" height="20" transform="translate(-0.198)"/>
      <g id="Icon" transform="translate(0 2.291)">
        <path id="_0d8aaeea-9191-4e48-8b57-07357a6ef4ea" data-name="0d8aaeea-9191-4e48-8b57-07357a6ef4ea" class="cls-2" d="M14.981,2.218A4.575,4.575,0,0,1,18.2,3.546a9.378,9.378,0,0,0,2.417-1.227.5.5,0,0,1,.774.527,7.509,7.509,0,0,1-1.843,3.388,4.607,4.607,0,0,1,.039.583,12.742,12.742,0,0,1-3.641,9.359A11.955,11.955,0,0,1,7.5,19.53,14.144,14.144,0,0,1,.666,17.71a.5.5,0,0,1,.263-.937c.133.005.268.008.4.008a10.045,10.045,0,0,0,4.908-1.275A8.4,8.4,0,0,1,1.432,8.2,11.58,11.58,0,0,1,2.27,3.433a.5.5,0,0,1,.866-.084,9.2,9.2,0,0,0,7.273,3.906V6.848a4.574,4.574,0,0,1,4.572-4.63Zm3.074,2.4a.5.5,0,0,1-.377-.172,3.573,3.573,0,0,0-6.269,2.392s0,0,0,.007v.91a.5.5,0,0,1-.487.5c-.088,0-.177,0-.264,0A10.2,10.2,0,0,1,2.893,4.666a10.692,10.692,0,0,0-.46,3.526c.153,3.1,1.849,5.386,5.043,6.806a.5.5,0,0,1,.078.871,11.052,11.052,0,0,1-4.623,1.8A12.817,12.817,0,0,0,7.5,18.53a10.961,10.961,0,0,0,7.748-3.07,11.765,11.765,0,0,0,3.341-8.643,3.556,3.556,0,0,0-.064-.659.5.5,0,0,1,.14-.451,6.512,6.512,0,0,0,1.3-1.827A10.381,10.381,0,0,1,18.2,4.6.5.5,0,0,1,18.055,4.618Z" transform="translate(-0.909 -2.718)"/>
      </g>
    </g>
  </g>
</svg>
