<svg xmlns="http://www.w3.org/2000/svg" width="22" height="31.246" viewBox="0 0 22 31.246">
  <defs>
    <style>
      .cls-1 {
        fill: #fff;
      }
    </style>
  </defs>
  <path id="Icon_material-location-on" data-name="Icon material-location-on" class="cls-1" d="M18,2.5a10.992,10.992,0,0,1,11,11,16.579,16.579,0,0,1-1.684,6.574,43.453,43.453,0,0,1-3.651,6.409,69.331,69.331,0,0,1-5.293,6.852L18,33.746l-.371-.411a69.33,69.33,0,0,1-5.293-6.852,43.453,43.453,0,0,1-3.651-6.409A16.579,16.579,0,0,1,7,13.5a10.992,10.992,0,0,1,11-11Zm0,29.742a69.925,69.925,0,0,0,4.843-6.329C25.2,22.424,28,17.439,28,13.5a10,10,0,1,0-20,0c0,3.939,2.8,8.924,5.157,12.413A69.924,69.924,0,0,0,18,32.242ZM18,9.25a4.25,4.25,0,1,1-4.25,4.25A4.255,4.255,0,0,1,18,9.25Zm0,7.5a3.25,3.25,0,1,0-3.25-3.25A3.254,3.254,0,0,0,18,16.75Z" transform="translate(-7 -2.5)"/>
</svg>
