<svg xmlns="http://www.w3.org/2000/svg" width="26.5" height="21.4" viewBox="0 0 26.5 21.4">
  <defs>
    <style>
      .cls-1 {
        fill: #fff;
      }
    </style>
  </defs>
  <g id="Group_26" data-name="Group 26" transform="translate(-1422 -4369)">
    <path id="Icon_material-email" data-name="Icon material-email" class="cls-1" d="M5.55,5.5h20.4A3.053,3.053,0,0,1,29,8.55v15.3a3.053,3.053,0,0,1-3.05,3.05H5.55A3.053,3.053,0,0,1,2.5,23.85l.013-15.3A3.047,3.047,0,0,1,5.55,5.5Zm20.4,20.4A2.052,2.052,0,0,0,28,23.85V8.55A2.052,2.052,0,0,0,25.95,6.5H5.55A2.046,2.046,0,0,0,3.513,8.55L3.5,23.85A2.052,2.052,0,0,0,5.55,25.9Z" transform="translate(1419.5 4363.5)"/>
    <path id="Path_11" data-name="Path 11" class="cls-1" d="M3723.472,4378.467l-.294-.213-10.164-7.36.586-.81,9.869,7.147,9.784-7.146.59.808Z" transform="translate(-2288.341 4.903)"/>
  </g>
</svg>
