<?xml version="1.0" encoding="utf-8"?>
<!-- Generator: Adobe Illustrator 27.4.1, SVG Export Plug-In . SVG Version: 6.00 Build 0)  -->
<svg version="1.1" id="Layer_1" xmlns="http://www.w3.org/2000/svg" xmlns:xlink="http://www.w3.org/1999/xlink" x="0px" y="0px"
	 viewBox="0 0 20.96 21" style="enable-background:new 0 0 20.96 21;" xml:space="preserve">
<style type="text/css">
	.st0{fill:#FFFFFF;}
</style>
<g>
	<path class="st0" d="M10.74,20.47c-1.86-0.06-3.6-0.52-5.2-1.47c-0.15-0.09-0.27-0.09-0.43-0.02c-1.31,0.56-2.62,1.12-3.93,1.68
		c-0.23,0.1-0.45,0.15-0.65-0.04c-0.21-0.19-0.18-0.42-0.09-0.66c0.51-1.36,1-2.72,1.51-4.08C2.01,15.7,2,15.57,1.9,15.41
		C-0.26,11.87-0.08,7.45,2.4,4.16c1.64-2.18,3.85-3.45,6.56-3.81c5.31-0.7,10.02,2.83,11.29,7.58c1.53,5.72-1.99,11.19-7.51,12.29
		C12.08,20.35,11.4,20.39,10.74,20.47z M1.73,19.32c0.11-0.04,0.17-0.06,0.23-0.08c1-0.42,2-0.84,3-1.28
		c0.32-0.14,0.58-0.12,0.88,0.06c2.06,1.28,4.29,1.72,6.66,1.25c4.85-0.95,7.95-5.7,6.91-10.55c-1-4.65-5.19-7.8-9.92-7.43
		C7.32,1.46,5.45,2.33,3.93,3.89c-2.92,2.99-3.36,7.63-1.07,11.17c0.21,0.32,0.24,0.59,0.1,0.95C2.54,17.09,2.15,18.19,1.73,19.32z"
		/>
	<path class="st0" d="M13.38,16.17c-1.35-0.08-2.59-0.6-3.75-1.34c-2.01-1.3-3.51-3.02-4.43-5.24C4.95,8.96,4.8,8.3,4.74,7.62
		C4.67,6.96,4.83,6.37,5.2,5.82C5.62,5.2,6.16,4.7,6.85,4.4C7.47,4.12,8.02,4.3,8.38,4.87C8.71,5.4,9.03,5.93,9.35,6.47
		c0.1,0.17,0.19,0.35,0.27,0.53c0.22,0.46,0.15,0.88-0.22,1.23C9.17,8.46,8.9,8.67,8.64,8.89C8.36,9.13,8.33,9.15,8.52,9.47
		c0.28,0.44,0.57,0.88,0.91,1.27c0.56,0.66,1.21,1.23,1.98,1.65c0.37,0.2,0.37,0.19,0.63-0.13c0.21-0.25,0.42-0.51,0.66-0.75
		c0.34-0.35,0.76-0.43,1.21-0.22c0.2,0.09,0.39,0.19,0.57,0.3c0.51,0.31,1.02,0.62,1.53,0.93c0.63,0.38,0.82,0.94,0.49,1.6
		c-0.56,1.09-1.38,1.88-2.66,2.06C13.7,16.19,13.56,16.17,13.38,16.17z M13.58,15.2c0.74,0.02,1.89-0.86,2.05-1.56
		c0.02-0.07-0.04-0.2-0.1-0.24c-0.6-0.38-1.22-0.74-1.82-1.12c-0.18-0.11-0.31-0.09-0.44,0.08c-0.24,0.3-0.49,0.59-0.74,0.87
		c-0.27,0.3-0.6,0.38-0.97,0.26c-0.27-0.09-0.53-0.19-0.77-0.33c-0.85-0.49-1.56-1.15-2.2-1.89c-0.42-0.48-0.81-0.99-1.04-1.6
		C7.26,9.02,7.34,8.7,7.87,8.24c0.23-0.2,0.45-0.39,0.69-0.57c0.17-0.13,0.19-0.26,0.08-0.44C8.28,6.65,7.92,6.07,7.59,5.48
		C7.47,5.27,7.34,5.24,7.14,5.35C6.64,5.63,6.21,6,5.95,6.52C5.82,6.78,5.74,7.1,5.74,7.39C5.73,8.05,5.91,8.67,6.16,9.27
		c0.9,2.13,2.37,3.76,4.35,4.93C11.46,14.77,12.47,15.15,13.58,15.2z"/>
</g>
</svg>
